<?xml version="1.0" encoding="UTF-8"?>
<!DOCTYPE svg PUBLIC "-//W3C//DTD SVG 1.1//EN" "http://www.w3.org/Graphics/SVG/1.1/DTD/svg11.dtd">
<!-- Creator: CorelDRAW X8 -->

<svg xmlns="http://www.w3.org/2000/svg" xml:space="preserve" width="1000px" height="1000px" version="1.1" style="shape-rendering:geometricPrecision; text-rendering:geometricPrecision; image-rendering:optimizeQuality; fill-rule:evenodd; clip-rule:evenodd"
viewBox="0 0 1000 1000"
 xmlns:xlink="http://www.w3.org/1999/xlink">
 <defs>
  <style type="text/css">
   <![CDATA[
    .fil1 {fill:#2F5F95}
    .fil0 {fill:#CC0000}
   ]]>
  </style>
 </defs>
 <g id="logo">
  <metadata id="CorelCorpID_0Corel-Layer"/>
  <path class="fil0" d="M0 0l920 0 0 80 -840 0 0 920 -80 0 0 -1000zm560 380l200 0 0 440 -200 0 0 -440zm0 -200l200 0 0 140 -200 0 0 -140z"/>
  <path class="fil1" d="M80 920l840 0 0 -920 80 0 0 1000 -920 0 0 -80zm160 -740l200 0 0 140 -200 0 0 -140zm0 200l200 0 0 440 -200 0 0 -440z"/>
 </g>
</svg>
