<svg id="Layer_1" data-name="Layer 1" xmlns="http://www.w3.org/2000/svg" viewBox="0 0 143.49 28.68"><defs><style>.cls-1{fill:#5078a5;}.cls-2{fill:#e04759;}</style></defs><path class="cls-1" d="M290.08,172.1v3.68h-7.26V172.1Zm0,5.09v23.17h-7.26V177.19Z" transform="translate(-282.82 -172.1)"/><path class="cls-1" d="M307.37,184.59h-6.25v-1.25a6.44,6.44,0,0,0-.19-2c-.12-.28-.42-.42-.91-.42a1,1,0,0,0-.89.39,1.92,1.92,0,0,0-.3,1.18A5.86,5.86,0,0,0,299,184a2.47,2.47,0,0,0,.89,1.09,19.19,19.19,0,0,0,3,1.73,11,11,0,0,1,4,2.83,6.51,6.51,0,0,1,1,3.85,9.68,9.68,0,0,1-.74,4.27,4.83,4.83,0,0,1-2.45,2.22,10,10,0,0,1-4.14.77,11.36,11.36,0,0,1-4.6-.83,5,5,0,0,1-2.63-2.27,10,10,0,0,1-.72-4.33v-1.12h6.25v1.47a7.54,7.54,0,0,0,.24,2.42.91.91,0,0,0,.93.56,1.27,1.27,0,0,0,1.05-.37,2.79,2.79,0,0,0,.3-1.58,3.47,3.47,0,0,0-.39-2.08,33.11,33.11,0,0,0-4.1-2.48q-3.11-1.74-3.79-3.17a7.79,7.79,0,0,1-.68-3.37,8.75,8.75,0,0,1,.74-4.1,4.71,4.71,0,0,1,2.48-2,10.69,10.69,0,0,1,4.08-.72,11.6,11.6,0,0,1,3.92.59,6.09,6.09,0,0,1,2.48,1.54,4.2,4.2,0,0,1,1,1.78,12.33,12.33,0,0,1,.19,2.57Z" transform="translate(-282.82 -172.1)"/><path class="cls-1" d="M317.2,177.19l-.28,3.05q1.54-3.27,4.45-3.47v8.15a5.85,5.85,0,0,0-2.84.53,2.18,2.18,0,0,0-1.12,1.46,26,26,0,0,0-.21,4.3v9.15h-7.05V177.19Z" transform="translate(-282.82 -172.1)"/><path class="cls-1" d="M329.6,186.16H323v-1.55a10.79,10.79,0,0,1,.62-4.14,5.74,5.74,0,0,1,2.48-2.58,11.59,11.59,0,0,1,10.25.15,4.9,4.9,0,0,1,2.18,3.11,47.66,47.66,0,0,1,.37,7.58v11.63H332v-2.07a4.31,4.31,0,0,1-4.1,2.48,6,6,0,0,1-3.4-1c-1-.7-1.54-2.21-1.54-4.55v-1.9c0-1.74.27-2.92.82-3.55a11.46,11.46,0,0,1,4.07-2.2c2.31-.9,3.55-1.52,3.71-1.83a4.68,4.68,0,0,0,.25-1.92,6.43,6.43,0,0,0-.27-2.36.92.92,0,0,0-.9-.55c-.48,0-.78.15-.89.46a9.14,9.14,0,0,0-.18,2.4Zm2.24,3.18a5.26,5.26,0,0,0-2,2.08,8.27,8.27,0,0,0-.27,2.41,6.88,6.88,0,0,0,.24,2.32.92.92,0,0,0,.93.52.87.87,0,0,0,.87-.41,6.71,6.71,0,0,0,.2-2.15Z" transform="translate(-282.82 -172.1)"/><path class="cls-1" d="M357.64,189.18h-9.12v5a5.66,5.66,0,0,0,.22,2,.88.88,0,0,0,.87.45,1.06,1.06,0,0,0,1.08-.6,6.6,6.6,0,0,0,.27-2.33v-3.05h6.68v1.71a15.38,15.38,0,0,1-.27,3.3,6.85,6.85,0,0,1-1.26,2.46,6.3,6.3,0,0,1-2.52,2,9.74,9.74,0,0,1-3.84.65,11.11,11.11,0,0,1-3.94-.64,6.13,6.13,0,0,1-4-4.25,16.23,16.23,0,0,1-.37-3.94v-6.75a11.59,11.59,0,0,1,.82-4.79,5.66,5.66,0,0,1,2.69-2.69,10.74,10.74,0,0,1,9.19.19,6.22,6.22,0,0,1,2.71,3,14,14,0,0,1,.77,5.23Zm-7.07-3.77v-1.69a8.46,8.46,0,0,0-.19-2.32.75.75,0,0,0-.78-.52c-.49,0-.79.14-.91.44a9.22,9.22,0,0,0-.17,2.4v1.69Z" transform="translate(-282.82 -172.1)"/><path class="cls-1" d="M367.57,172.1v28.26h-7.26V172.1Z" transform="translate(-282.82 -172.1)"/><path class="cls-2" d="M377.72,172.1v3.68h-7.26V172.1Zm0,5.09v23.17h-7.26V177.19Z" transform="translate(-282.82 -172.1)"/><path class="cls-2" d="M387.78,177.19l-.12,2.14a5.31,5.31,0,0,1,1.87-1.92,5.12,5.12,0,0,1,2.56-.64,4.86,4.86,0,0,1,3,.86,3.78,3.78,0,0,1,1.48,2.16,19.71,19.71,0,0,1,.33,4.33v16.24h-7.05V184.31a14.35,14.35,0,0,0-.16-2.91c-.1-.35-.39-.52-.87-.52a.87.87,0,0,0-.94.6,15,15,0,0,0-.19,3.22v15.66h-7.05V177.19Z" transform="translate(-282.82 -172.1)"/><path class="cls-2" d="M408.65,172.1v3.57a8.37,8.37,0,0,0-2.58.21q-.39.19-.39,1.14v.73h3v3.67H407v18.94h-7.05V181.42h-1.45v-3.67h1.45a18,18,0,0,1,.16-3.05,2.56,2.56,0,0,1,.77-1.37,3.94,3.94,0,0,1,1.74-.92,13.92,13.92,0,0,1,3.47-.31Z" transform="translate(-282.82 -172.1)"/><path class="cls-2" d="M426.3,185.33V191a24,24,0,0,1-.31,4.58,6.39,6.39,0,0,1-1.35,2.72,5.94,5.94,0,0,1-2.64,1.87,10.61,10.61,0,0,1-3.71.6,13.32,13.32,0,0,1-4-.51,5.43,5.43,0,0,1-2.53-1.55,6.33,6.33,0,0,1-1.28-2.52,19.25,19.25,0,0,1-.38-4.42v-5.94a14.39,14.39,0,0,1,.7-5,5.81,5.81,0,0,1,2.51-2.92,8.88,8.88,0,0,1,4.64-1.1,10.64,10.64,0,0,1,4.08.71,6.35,6.35,0,0,1,3.89,4.18A14.43,14.43,0,0,1,426.3,185.33Zm-7.05-1.75a7.62,7.62,0,0,0-.19-2.24.79.79,0,0,0-.82-.46.83.83,0,0,0-.84.46,7,7,0,0,0-.21,2.24V194a6.7,6.7,0,0,0,.21,2.13.79.79,0,0,0,.82.5.81.81,0,0,0,.83-.45,6.06,6.06,0,0,0,.2-2Z" transform="translate(-282.82 -172.1)"/></svg>